<?xml version="1.0" encoding="utf-8"?>
<!-- Generator: Adobe Illustrator 21.0.0, SVG Export Plug-In . SVG Version: 6.00 Build 0)  -->
<svg version="1.1" id="Layer_1" xmlns="http://www.w3.org/2000/svg" xmlns:xlink="http://www.w3.org/1999/xlink" x="0px" y="0px"
	 viewBox="0 0 24 24" style="enable-background:new 0 0 24 24;" xml:space="preserve">
<style type="text/css">
	.st0{fill:#DD0735;}
</style>
<path class="st0" d="M13,24h6c2.8,0,5-2.2,5-5v-6H13V24z M16,17h5v1h-5V17z M16,19h5v1h-5V19z M0,19c0,2.8,2.2,5,5,5h6V13H0V19z
	 M3,18h2v-2h1v2h2v1H6v2H5v-2H3V18z M19,0h-6v11h11V5C24,2.2,21.8,0,19,0z M18.5,3C18.8,3,19,3.2,19,3.5S18.8,4,18.5,4
	S18,3.8,18,3.5S18.2,3,18.5,3z M18.5,8C18.2,8,18,7.8,18,7.5S18.2,7,18.5,7S19,7.2,19,7.5S18.8,8,18.5,8z M21,6h-5V5h5V6z M0,5v6h11
	V0H5C2.2,0,0,2.2,0,5z M6.9,3.4l0.7,0.7L6.2,5.5l1.4,1.4L6.9,7.6L5.5,6.2L4.1,7.6L3.4,6.9l1.4-1.4L3.4,4.1l0.7-0.7l1.4,1.4
	C5.5,4.8,6.9,3.4,6.9,3.4z"/>
</svg>
